<svg xmlns="http://www.w3.org/2000/svg" viewBox="0 0 1000 620" width="1000" height="620" role="img" aria-labelledby="title desc">
  <title id="title">Galeria de avatares Lecto</title>
  <desc id="desc">Colecao de retratos circulares em estilo flat, mostrando o resultado visual esperado do avatar modular.</desc>
  <defs>
    <filter id="cardShadow" x="-20%" y="-20%" width="140%" height="140%">
      <feDropShadow dx="0" dy="10" stdDeviation="14" flood-color="#1C4259" flood-opacity=".14"/>
    </filter>
  </defs>
  <rect width="1000" height="620" fill="#F2F2EB"/>
  <text x="72" y="70" font-family="Arial, Helvetica, sans-serif" font-size="34" font-weight="800" fill="#1C4259">Estilo dos avatares</text>
  <text x="72" y="102" font-family="Arial, Helvetica, sans-serif" font-size="17" fill="#60737C">Retratos circulares, simples e coloridos, montados por camadas SVG.</text>

  <g transform="translate(74 140)">
    <g transform="translate(0 0)">
      <circle cx="90" cy="90" r="78" fill="#EAF3F4" filter="url(#cardShadow)"/>
      <path d="M40 168 C48 118 132 118 140 168 Z" fill="#1C4259"/>
      <circle cx="90" cy="78" r="38" fill="#F2BE8F"/>
      <path d="M48 72 C56 24 132 20 140 74 C116 54 78 54 48 72 Z" fill="#1C4259"/>
      <circle cx="76" cy="82" r="5" fill="#1C4259"/><circle cx="104" cy="82" r="5" fill="#1C4259"/>
      <path d="M78 100 C86 108 96 108 104 100" fill="none" stroke="#1C4259" stroke-width="4" stroke-linecap="round"/>
    </g>
    <g transform="translate(205 0)">
      <circle cx="90" cy="90" r="78" fill="#EDE7F3" filter="url(#cardShadow)"/>
      <path d="M36 168 C48 116 132 116 144 168 Z" fill="#6F4E8C"/>
      <circle cx="90" cy="84" r="36" fill="#C98259"/>
      <path d="M40 58 C46 18 134 18 140 58 L140 134 C116 150 64 150 40 134 Z" fill="#26314F"/>
      <circle cx="78" cy="86" r="5" fill="#1C4259"/><circle cx="102" cy="86" r="5" fill="#1C4259"/>
      <path d="M76 104 C86 112 96 112 106 104" fill="none" stroke="#1C4259" stroke-width="4" stroke-linecap="round"/>
    </g>
    <g transform="translate(410 0)">
      <circle cx="90" cy="90" r="78" fill="#E7EEF1" filter="url(#cardShadow)"/>
      <path d="M42 168 C54 116 126 116 138 168 Z" fill="#D86F45"/>
      <circle cx="90" cy="82" r="37" fill="#F2BE8F"/>
      <path d="M46 70 C52 20 118 16 138 56 C132 96 104 106 72 102 C58 100 50 88 46 70 Z" fill="#2F8F8B"/>
      <path d="M76 86 C84 78 94 78 102 86" fill="none" stroke="#1C4259" stroke-width="4" stroke-linecap="round"/>
      <path d="M76 104 C86 112 96 112 106 104" fill="none" stroke="#1C4259" stroke-width="4" stroke-linecap="round"/>
    </g>
    <g transform="translate(615 0)">
      <circle cx="90" cy="90" r="78" fill="#F6F0DD" filter="url(#cardShadow)"/>
      <path d="M38 168 C50 112 130 112 142 168 Z" fill="#1C4259"/>
      <circle cx="90" cy="82" r="38" fill="#86543F"/>
      <path d="M48 66 C58 18 130 22 138 70 C112 52 76 52 48 66 Z" fill="#8C613B"/>
      <circle cx="76" cy="84" r="5" fill="#1C4259"/><circle cx="104" cy="84" r="5" fill="#1C4259"/>
      <circle cx="76" cy="84" r="17" fill="none" stroke="#BF9663" stroke-width="5"/><circle cx="104" cy="84" r="17" fill="none" stroke="#BF9663" stroke-width="5"/>
    </g>

    <g transform="translate(0 190)">
      <circle cx="90" cy="90" r="78" fill="#EDE7F3" filter="url(#cardShadow)"/>
      <path d="M42 168 C54 116 126 116 138 168 Z" fill="#26314F"/>
      <circle cx="90" cy="82" r="37" fill="#C98259"/>
      <path d="M48 68 C56 22 128 22 136 68 L136 126 C112 144 68 144 48 126 Z" fill="#6F4E8C"/>
      <path d="M72 86 C82 78 92 78 102 86" fill="none" stroke="#1C4259" stroke-width="4" stroke-linecap="round"/>
      <path d="M76 106 C88 114 100 114 112 106" fill="none" stroke="#1C4259" stroke-width="4" stroke-linecap="round"/>
    </g>
    <g transform="translate(205 190)">
      <circle cx="90" cy="90" r="78" fill="#EAF3F4" filter="url(#cardShadow)"/>
      <path d="M42 168 C54 116 126 116 138 168 Z" fill="#1C4259"/>
      <circle cx="90" cy="82" r="37" fill="#F2BE8F"/>
      <path d="M48 64 C60 20 130 22 138 72 C110 54 78 54 48 64 Z" fill="#1C4259"/>
      <path d="M64 40 H116 L90 20 Z" fill="#1C4259"/>
      <circle cx="76" cy="84" r="5" fill="#1C4259"/><circle cx="104" cy="84" r="5" fill="#1C4259"/>
    </g>
    <g transform="translate(410 190)">
      <circle cx="90" cy="90" r="78" fill="#F6F0DD" filter="url(#cardShadow)"/>
      <path d="M40 168 C52 116 128 116 140 168 Z" fill="#6F4E8C"/>
      <circle cx="90" cy="82" r="37" fill="#F2BE8F"/>
      <path d="M48 74 C54 22 126 20 138 74 C114 54 78 54 48 74 Z" fill="#D86F45"/>
      <circle cx="76" cy="84" r="5" fill="#1C4259"/><circle cx="104" cy="84" r="5" fill="#1C4259"/>
      <path d="M70 126 C92 110 112 110 132 126" fill="none" stroke="#D9B97E" stroke-width="8" stroke-linecap="round"/>
    </g>
    <g transform="translate(615 190)">
      <circle cx="90" cy="90" r="78" fill="#E7EEF1" filter="url(#cardShadow)"/>
      <path d="M40 168 C52 116 128 116 140 168 Z" fill="#D86F45"/>
      <circle cx="90" cy="82" r="37" fill="#86543F"/>
      <path d="M48 68 C56 22 128 22 136 68 L136 126 C112 144 68 144 48 126 Z" fill="#26314F"/>
      <path d="M50 86 C50 42 130 42 130 86" fill="none" stroke="#1C4259" stroke-width="8" stroke-linecap="round"/>
      <rect x="42" y="82" width="26" height="40" rx="10" fill="#2F8F8B"/><rect x="112" y="82" width="26" height="40" rx="10" fill="#2F8F8B"/>
    </g>
  </g>
</svg>
